<?xml version="1.0" encoding="UTF-8" standalone="no"?>
<svg
   width="64"
   height="64"
   version="1.1"
   viewBox="0 0 16.933 16.933"
   id="svg8"
   sodipodi:docname="default-folder-system.svg"
   inkscape:version="1.4.2 (ebf0e940d0, 2025-05-08)"
   xmlns:inkscape="http://www.inkscape.org/namespaces/inkscape"
   xmlns:sodipodi="http://sodipodi.sourceforge.net/DTD/sodipodi-0.dtd"
   xmlns="http://www.w3.org/2000/svg"
   xmlns:svg="http://www.w3.org/2000/svg">
  <sodipodi:namedview
     id="namedview8"
     pagecolor="#ffffff"
     bordercolor="#000000"
     borderopacity="0.25"
     inkscape:showpageshadow="2"
     inkscape:pageopacity="0.0"
     inkscape:pagecheckerboard="0"
     inkscape:deskcolor="#d1d1d1"
     inkscape:zoom="12.5"
     inkscape:cx="38.96"
     inkscape:cy="38.4"
     inkscape:window-width="2048"
     inkscape:window-height="1011"
     inkscape:window-x="0"
     inkscape:window-y="0"
     inkscape:window-maximized="1"
     inkscape:current-layer="svg8" />
  <defs
     id="defs2">
    <linearGradient
       id="c-3"
       x1="-197.1"
       x2="-196.91"
       y1="217.68"
       y2="219.37"
       gradientTransform="rotate(-45 -338.07 -140.03)"
       gradientUnits="userSpaceOnUse">
      <stop
         offset="0"
         id="stop1" />
      <stop
         stop-opacity="0"
         offset="1"
         id="stop2" />
    </linearGradient>
  </defs>
  <path
     d="m3.175 2.381c-0.293 0-0.265 0.264-0.265 0.53h-1.058c-0.265 0-0.265 0-0.265 0.264v5.556c0 0.293 0.237 0.53 0.53 0.53h12.7a0.529 0.529 0 0 0 0.529-0.53v-5.556c0-0.265 0-0.265-0.265-0.265h-7.408c0-0.265 0.028-0.53-0.265-0.53z"
     fill="#ffffff"
     fill-opacity=".976"
     stroke="#000000"
     stroke-opacity=".268"
     stroke-width=".529"
     paint-order="markers stroke fill"
     id="path2" />
  <path
     d="m3.175 2.381c-0.293 0-0.265 0.264-0.265 0.53h-1.058c-0.265 0-0.265 0-0.265 0.264v5.556c0 0.293 0.237 0.53 0.53 0.53h12.7a0.529 0.529 0 0 0 0.529-0.53v-5.556c0-0.265 0-0.265-0.265-0.265h-7.408c0-0.265 0.028-0.53-0.265-0.53z"
     fill="#ffffff"
     fill-opacity=".976"
     paint-order="markers stroke fill"
     id="path3" />
  <path
     d="m8.467 4.233c-0.293 0-0.382 0.276-0.53 0.53l-0.308 0.528h-6.835c-0.265 0-0.265 0.265-0.265 0.265v8.996c0 0.264 0.265 0.264 0.265 0.264h15.346c0.264 0 0.264-0.264 0.264-0.264v-10.054c0-0.265-0.264-0.265-0.264-0.265z"
     fill="none"
     stroke="#003579"
     stroke-opacity=".561"
     stroke-width=".529"
     paint-order="markers stroke fill"
     id="path4"
     style="fill:#ffeeaa;stroke:#ffeeaa" />
  <path
     d="m8.467 4.233c-0.293 0-0.382 0.276-0.53 0.53l-0.308 0.528h-6.835c-0.265 0-0.265 0.265-0.265 0.265v8.996c0 0.264 0.265 0.264 0.265 0.264h15.346c0.264 0 0.264-0.264 0.264-0.264v-10.054c0-0.265-0.264-0.265-0.264-0.265z"
     fill="#6ba4e7"
     paint-order="markers stroke fill"
     id="path5"
     style="fill:#ffe680" />
  <rect
     style="fill:none;stroke:#ff0000;stroke-width:0.264578;stroke-dasharray:1.05831206,0.26457801;stroke-dashoffset:0"
     id="rect8"
     width="10.942951"
     height="2.0531263"
     x="4.7163959"
     y="6.6512022"
     rx="0.13228907"
     transform="rotate(11.22596)" />
  <text
     xml:space="preserve"
     style="font-size:1.43505px;text-align:start;writing-mode:lr-tb;direction:ltr;text-anchor:start;fill:#ffeeaa;stroke:#ffeeaa;stroke-width:0.119593"
     x="5.6971107"
     y="8.1660061"
     id="text8"
     transform="rotate(11.22596)"><tspan
       sodipodi:role="line"
       id="tspan8"
       style="fill:#ff0000;stroke:#ff0000;stroke-width:0.119593"
       x="5.6971107"
       y="8.1660061">TOP SECRET</tspan></text>
  <rect
     x="3.44"
     y="2.91"
     width="3.704"
     height=".529"
     rx=".265"
     ry=".265"
     fill-opacity=".267"
     paint-order="markers stroke fill"
     id="rect5" />
  <path
     d="m16.404 11.641-3.1744 3.1749h2.6458c0.29307 0 0.52864-0.23557 0.52864-0.52864z"
     fill="url(#c-3)"
     opacity=".1"
     stroke-width=".26458"
     id="path8" />
</svg>
